<svg width="49" height="50" viewBox="0 0 49 50" fill="none" xmlns="http://www.w3.org/2000/svg">
<path d="M0.931549 10.5185C0.931549 4.9957 5.4087 0.518555 10.9315 0.518555H49V39.8355C49 45.3584 44.5229 49.8355 39 49.8355H0.931549V10.5185Z" fill="#E34B36"/>
<path d="M27.8969 19.0233C29.5738 19.0233 30.6675 20.1981 30.6675 21.9602C30.6675 24.53 28.4073 26.8796 25.1993 29.8899L24.8348 30.1836L24.4703 29.8165C21.2623 26.8796 19.0021 24.53 19.0021 21.9602C19.0021 20.1981 20.0958 19.0233 21.7726 19.0233C22.4288 19.0233 23.0121 19.2435 23.5224 19.7575C24.0328 20.1981 24.4703 20.2715 24.8348 20.2715C25.1993 20.2715 25.6368 20.1981 26.1471 19.7575C26.6575 19.2435 27.2408 19.0233 27.8969 19.0233ZM27.8969 17.5548C26.8762 17.5548 25.9284 17.9219 25.1264 18.6562C24.9806 18.803 24.9806 18.803 24.8348 18.803C24.689 18.803 24.689 18.803 24.5432 18.6562C23.7412 17.9219 22.7934 17.5548 21.7726 17.5548C19.2938 17.5548 17.544 19.3904 17.544 21.9602C17.544 25.2643 20.2416 27.9075 23.5224 30.9179L24.8348 32.2395L26.1471 30.9179C29.428 27.9075 32.1256 25.2643 32.1256 21.9602C32.1256 19.3904 30.3758 17.5548 27.8969 17.5548Z" fill="white"/>
</svg>
