<svg width="57.9" height="59.1" xmlns="http://www.w3.org/2000/svg" xmlns:svg="http://www.w3.org/2000/svg" data-name="Layer 1" version="1.1">
 <defs>
  <style>.cls-1 {
        fill: #e34b36;
        stroke-width: 0px;
      }

      .cls-2 {
        <!-- fill: none; -->
        <!-- fill: #e34b36; -->
        stroke: #fff;
        stroke-linecap: round;
        stroke-linejoin: round;
        stroke-width: 2px;
      }</style>
 </defs>
 <g class="layer">
  <title>Layer 1</title>
  <path class="cls-1" d="m18.8,0l39.1,0l0,40.3c0,10.4 -8.4,18.8 -18.8,18.8l-39.1,0l0,-40.3c0,-10.4 8.4,-18.8 18.8,-18.8z" id="svg_1"/>
  <path class="cls-2" d="m29.1,22.7c-2.3,-2.6 -6.2,-3.4 -9.1,-1s-3.3,6.3 -1,9c1.9,2.3 7.6,7.2 9.5,8.8c0.2,0.2 0.3,0.3 0.4,0.3c0.1,0 0.2,0 0.3,0c0.1,0 0.2,-0.1 0.4,-0.3c1.9,-1.6 7.6,-6.4 9.5,-8.8c2.3,-2.8 1.9,-6.7 -1,-9s-6.8,-1.6 -9.1,1l0.1,0z" id="svg_2"/>
 </g>
</svg>