<svg width="143" height="30" viewBox="0 0 143 30" fill="none" xmlns="http://www.w3.org/2000/svg">
<path d="M22.9085 9.96349C22.9085 9.96349 22.6349 6.87837 20.6934 4.56817C20.6934 4.56817 19.305 2.48717 16.6048 1.16654C13.9022 -0.152885 11.0975 -0.052231 10.3352 0.0617631C10.3352 0.0617631 7.02597 0.435276 4.8826 2.11366C4.8826 2.11366 2.56296 3.84297 1.45298 5.95065C1.35451 6.13741 1.2536 6.32174 1.14783 6.50365C0.791614 7.12576 0.0974228 8.62345 0.00502606 10.9688C0.00502606 10.9688 -0.106823 14.0042 0.724748 16.0064C0.724748 16.0064 1.94779 19.881 3.60242 21.8759C3.60242 21.8759 5.86128 25.0908 7.38583 26.4684C7.38583 26.4684 9.65076 28.7871 10.2076 29.1254C10.2076 29.1254 11.1838 30.041 11.658 29.9986C12.1917 29.9513 13.8597 28.2474 14.5782 27.5441C15.2979 26.8407 16.42 25.6353 16.8079 25.2048C17.1969 24.7742 18.1464 23.5834 18.5342 23.0813C18.9233 22.5792 19.7864 21.3156 20.1451 20.6996C20.505 20.0823 21.311 18.604 21.5554 17.9867C21.7997 17.3695 22.3468 16.0209 22.6204 14.8301C22.6204 14.8301 23.2246 12.304 22.9085 9.9647V9.96349ZM19.5311 17.19C19.3354 17.6993 18.6935 18.9193 18.4066 19.4299C18.1197 19.9392 17.4303 20.9821 17.1203 21.3969C16.8103 21.8116 16.0529 22.7951 15.7429 23.1504C15.4329 23.5058 14.5381 24.5014 13.963 25.0823C13.388 25.6632 12.0579 27.0699 11.6324 27.1087C11.2531 27.1439 10.475 26.3871 10.475 26.3871C10.1893 26.2938 8.22348 24.1934 8.22348 24.1934C7.29222 23.3226 6.01933 21.5654 5.47224 20.7881H9.53041C9.92309 21.3981 10.6076 21.8019 11.3881 21.8019C12.6087 21.8019 13.5971 20.8148 13.5971 19.5984C13.5971 18.3821 12.6075 17.3949 11.3881 17.3949C10.6076 17.3949 9.92309 17.8 9.53041 18.4088H4.02064C3.34225 16.9753 2.90945 15.5565 2.90945 15.5565C2.60916 14.6991 2.46327 13.3918 2.39397 12.4726C2.31008 11.3617 2.40734 10.2424 2.70763 9.16917C3.02494 8.03165 3.4152 7.43985 3.4152 7.43985C4.16167 5.57957 6.22722 4.08673 6.22722 4.08673C7.93778 2.70061 10.5784 2.39258 10.5784 2.39258C11.1863 2.29799 13.4257 2.21431 15.5812 3.30453C17.7367 4.39475 18.8442 6.11316 18.8442 6.11316C20.3943 8.02074 20.6119 10.5686 20.6119 10.5686C20.618 10.6171 20.6241 10.6669 20.629 10.7154H13.2445C12.8506 10.109 12.1674 9.7064 11.3893 9.7064C10.1687 9.7064 9.18027 10.6935 9.18027 11.9099C9.18027 13.1262 10.1699 14.1134 11.3893 14.1134C12.1722 14.1134 12.8579 13.7071 13.2506 13.0947H20.6132C20.5232 13.9678 20.3809 14.5851 20.3809 14.5851C20.1633 15.5686 19.7269 16.6819 19.5311 17.1912V17.19Z" fill="#CF4532"/>
<path d="M34.2 22.14C33.2267 22.14 32.3467 21.9733 31.56 21.64C30.7867 21.3067 30.1733 20.8267 29.72 20.2C29.2667 19.5733 29.0333 18.8333 29.02 17.98H32.02C32.06 18.5533 32.26 19.0067 32.62 19.34C32.9933 19.6733 33.5 19.84 34.14 19.84C34.7933 19.84 35.3067 19.6867 35.68 19.38C36.0533 19.06 36.24 18.6467 36.24 18.14C36.24 17.7267 36.1133 17.3867 35.86 17.12C35.6067 16.8533 35.2867 16.6467 34.9 16.5C34.5267 16.34 34.0067 16.1667 33.34 15.98C32.4333 15.7133 31.6933 15.4533 31.12 15.2C30.56 14.9333 30.0733 14.54 29.66 14.02C29.26 13.4867 29.06 12.78 29.06 11.9C29.06 11.0733 29.2667 10.3533 29.68 9.74C30.0933 9.12667 30.6733 8.66 31.42 8.34C32.1667 8.00667 33.02 7.84 33.98 7.84C35.42 7.84 36.5867 8.19333 37.48 8.9C38.3867 9.59333 38.8867 10.5667 38.98 11.82H35.9C35.8733 11.34 35.6667 10.9467 35.28 10.64C34.9067 10.32 34.4067 10.16 33.78 10.16C33.2333 10.16 32.7933 10.3 32.46 10.58C32.14 10.86 31.98 11.2667 31.98 11.8C31.98 12.1733 32.1 12.4867 32.34 12.74C32.5933 12.98 32.9 13.18 33.26 13.34C33.6333 13.4867 34.1533 13.66 34.82 13.86C35.7267 14.1267 36.4667 14.3933 37.04 14.66C37.6133 14.9267 38.1067 15.3267 38.52 15.86C38.9333 16.3933 39.14 17.0933 39.14 17.96C39.14 18.7067 38.9467 19.4 38.56 20.04C38.1733 20.68 37.6067 21.1933 36.86 21.58C36.1133 21.9533 35.2267 22.14 34.2 22.14ZM42.9875 9.6C42.4942 9.6 42.0808 9.44667 41.7475 9.14C41.4275 8.82 41.2675 8.42667 41.2675 7.96C41.2675 7.49333 41.4275 7.10667 41.7475 6.8C42.0808 6.48 42.4942 6.32 42.9875 6.32C43.4808 6.32 43.8875 6.48 44.2075 6.8C44.5408 7.10667 44.7075 7.49333 44.7075 7.96C44.7075 8.42667 44.5408 8.82 44.2075 9.14C43.8875 9.44667 43.4808 9.6 42.9875 9.6ZM44.3675 10.92V22H41.5675V10.92H44.3675ZM53.2739 10.76C54.5939 10.76 55.6606 11.18 56.4739 12.02C57.2872 12.8467 57.6939 14.0067 57.6939 15.5V22H54.8939V15.88C54.8939 15 54.6739 14.3267 54.2339 13.86C53.7939 13.38 53.1939 13.14 52.4339 13.14C51.6606 13.14 51.0472 13.38 50.5939 13.86C50.1539 14.3267 49.9339 15 49.9339 15.88V22H47.1339V10.92H49.9339V12.3C50.3072 11.82 50.7806 11.4467 51.3539 11.18C51.9406 10.9 52.5806 10.76 53.2739 10.76ZM64.6966 10.74C65.5232 10.74 66.2499 10.9067 66.8766 11.24C67.5032 11.56 67.9966 11.98 68.3566 12.5V10.92H71.1766V22.08C71.1766 23.1067 70.9699 24.02 70.5566 24.82C70.1432 25.6333 69.5232 26.2733 68.6966 26.74C67.8699 27.22 66.8699 27.46 65.6966 27.46C64.1232 27.46 62.8299 27.0933 61.8166 26.36C60.8166 25.6267 60.2499 24.6267 60.1166 23.36H62.8966C63.0432 23.8667 63.3566 24.2667 63.8366 24.56C64.3299 24.8667 64.9232 25.02 65.6166 25.02C66.4299 25.02 67.0899 24.7733 67.5966 24.28C68.1032 23.8 68.3566 23.0667 68.3566 22.08V20.36C67.9966 20.88 67.4966 21.3133 66.8566 21.66C66.2299 22.0067 65.5099 22.18 64.6966 22.18C63.7632 22.18 62.9099 21.94 62.1366 21.46C61.3632 20.98 60.7499 20.3067 60.2966 19.44C59.8566 18.56 59.6366 17.5533 59.6366 16.42C59.6366 15.3 59.8566 14.3067 60.2966 13.44C60.7499 12.5733 61.3566 11.9067 62.1166 11.44C62.8899 10.9733 63.7499 10.74 64.6966 10.74ZM68.3566 16.46C68.3566 15.78 68.2232 15.2 67.9566 14.72C67.6899 14.2267 67.3299 13.8533 66.8766 13.6C66.4232 13.3333 65.9366 13.2 65.4166 13.2C64.8966 13.2 64.4166 13.3267 63.9766 13.58C63.5366 13.8333 63.1766 14.2067 62.8966 14.7C62.6299 15.18 62.4966 15.7533 62.4966 16.42C62.4966 17.0867 62.6299 17.6733 62.8966 18.18C63.1766 18.6733 63.5366 19.0533 63.9766 19.32C64.4299 19.5867 64.9099 19.72 65.4166 19.72C65.9366 19.72 66.4232 19.5933 66.8766 19.34C67.3299 19.0733 67.6899 18.7 67.9566 18.22C68.2232 17.7267 68.3566 17.14 68.3566 16.46ZM73.1912 16.42C73.1912 15.3 73.4112 14.3067 73.8512 13.44C74.3046 12.5733 74.9113 11.9067 75.6713 11.44C76.4446 10.9733 77.3046 10.74 78.2513 10.74C79.0779 10.74 79.7979 10.9067 80.4113 11.24C81.0379 11.5733 81.5379 11.9933 81.9113 12.5V10.92H84.7313V22H81.9113V20.38C81.5513 20.9 81.0513 21.3333 80.4113 21.68C79.7846 22.0133 79.0579 22.18 78.2313 22.18C77.2979 22.18 76.4446 21.94 75.6713 21.46C74.9113 20.98 74.3046 20.3067 73.8512 19.44C73.4112 18.56 73.1912 17.5533 73.1912 16.42ZM81.9113 16.46C81.9113 15.78 81.7779 15.2 81.5113 14.72C81.2446 14.2267 80.8846 13.8533 80.4313 13.6C79.9779 13.3333 79.4913 13.2 78.9713 13.2C78.4513 13.2 77.9713 13.3267 77.5312 13.58C77.0913 13.8333 76.7313 14.2067 76.4513 14.7C76.1846 15.18 76.0513 15.7533 76.0513 16.42C76.0513 17.0867 76.1846 17.6733 76.4513 18.18C76.7313 18.6733 77.0913 19.0533 77.5312 19.32C77.9846 19.5867 78.4646 19.72 78.9713 19.72C79.4913 19.72 79.9779 19.5933 80.4313 19.34C80.8846 19.0733 81.2446 18.7 81.5113 18.22C81.7779 17.7267 81.9113 17.14 81.9113 16.46ZM92.2859 22.14C91.3126 22.14 90.4326 21.9733 89.6459 21.64C88.8726 21.3067 88.2593 20.8267 87.8059 20.2C87.3526 19.5733 87.1193 18.8333 87.1059 17.98H90.1059C90.1459 18.5533 90.3459 19.0067 90.7059 19.34C91.0793 19.6733 91.5859 19.84 92.2259 19.84C92.8793 19.84 93.3926 19.6867 93.7659 19.38C94.1393 19.06 94.3259 18.6467 94.3259 18.14C94.3259 17.7267 94.1993 17.3867 93.9459 17.12C93.6926 16.8533 93.3726 16.6467 92.9859 16.5C92.6126 16.34 92.0926 16.1667 91.4259 15.98C90.5193 15.7133 89.7793 15.4533 89.2059 15.2C88.6459 14.9333 88.1593 14.54 87.7459 14.02C87.3459 13.4867 87.1459 12.78 87.1459 11.9C87.1459 11.0733 87.3526 10.3533 87.7659 9.74C88.1793 9.12667 88.7593 8.66 89.5059 8.34C90.2526 8.00667 91.1059 7.84 92.0659 7.84C93.5059 7.84 94.6726 8.19333 95.5659 8.9C96.4726 9.59333 96.9726 10.5667 97.0659 11.82H93.9859C93.9593 11.34 93.7526 10.9467 93.3659 10.64C92.9926 10.32 92.4926 10.16 91.8659 10.16C91.3193 10.16 90.8793 10.3 90.5459 10.58C90.2259 10.86 90.0659 11.2667 90.0659 11.8C90.0659 12.1733 90.1859 12.4867 90.4259 12.74C90.6793 12.98 90.9859 13.18 91.3459 13.34C91.7193 13.4867 92.2393 13.66 92.9059 13.86C93.8126 14.1267 94.5526 14.3933 95.1259 14.66C95.6993 14.9267 96.1926 15.3267 96.6059 15.86C97.0193 16.3933 97.2259 17.0933 97.2259 17.96C97.2259 18.7067 97.0326 19.4 96.6459 20.04C96.2593 20.68 95.6926 21.1933 94.9459 21.58C94.1993 21.9533 93.3126 22.14 92.2859 22.14ZM102.913 13.22V18.58C102.913 18.9533 103 19.2267 103.173 19.4C103.36 19.56 103.667 19.64 104.093 19.64H105.393V22H103.633C101.273 22 100.093 20.8533 100.093 18.56V13.22H98.7734V10.92H100.093V8.18H102.913V10.92H105.393V13.22H102.913ZM106.687 16.42C106.687 15.3 106.907 14.3067 107.347 13.44C107.801 12.5733 108.407 11.9067 109.167 11.44C109.941 10.9733 110.801 10.74 111.747 10.74C112.574 10.74 113.294 10.9067 113.907 11.24C114.534 11.5733 115.034 11.9933 115.407 12.5V10.92H118.227V22H115.407V20.38C115.047 20.9 114.547 21.3333 113.907 21.68C113.281 22.0133 112.554 22.18 111.727 22.18C110.794 22.18 109.941 21.94 109.167 21.46C108.407 20.98 107.801 20.3067 107.347 19.44C106.907 18.56 106.687 17.5533 106.687 16.42ZM115.407 16.46C115.407 15.78 115.274 15.2 115.007 14.72C114.741 14.2267 114.381 13.8533 113.927 13.6C113.474 13.3333 112.987 13.2 112.467 13.2C111.947 13.2 111.467 13.3267 111.027 13.58C110.587 13.8333 110.227 14.2067 109.947 14.7C109.681 15.18 109.547 15.7533 109.547 16.42C109.547 17.0867 109.681 17.6733 109.947 18.18C110.227 18.6733 110.587 19.0533 111.027 19.32C111.481 19.5867 111.961 19.72 112.467 19.72C112.987 19.72 113.474 19.5933 113.927 19.34C114.381 19.0733 114.741 18.7 115.007 18.22C115.274 17.7267 115.407 17.14 115.407 16.46ZM131.562 10.92L124.702 27.24H121.722L124.122 21.72L119.682 10.92H122.822L125.682 18.66L128.582 10.92H131.562ZM137.311 22.18C136.405 22.18 135.591 22.02 134.871 21.7C134.151 21.3667 133.578 20.92 133.151 20.36C132.738 19.8 132.511 19.18 132.471 18.5H135.291C135.345 18.9267 135.551 19.28 135.911 19.56C136.285 19.84 136.745 19.98 137.291 19.98C137.825 19.98 138.238 19.8733 138.531 19.66C138.838 19.4467 138.991 19.1733 138.991 18.84C138.991 18.48 138.805 18.2133 138.431 18.04C138.071 17.8533 137.491 17.6533 136.691 17.44C135.865 17.24 135.185 17.0333 134.651 16.82C134.131 16.6067 133.678 16.28 133.291 15.84C132.918 15.4 132.731 14.8067 132.731 14.06C132.731 13.4467 132.905 12.8867 133.251 12.38C133.611 11.8733 134.118 11.4733 134.771 11.18C135.438 10.8867 136.218 10.74 137.111 10.74C138.431 10.74 139.485 11.0733 140.271 11.74C141.058 12.3933 141.491 13.28 141.571 14.4H138.891C138.851 13.96 138.665 13.6133 138.331 13.36C138.011 13.0933 137.578 12.96 137.031 12.96C136.525 12.96 136.131 13.0533 135.851 13.24C135.585 13.4267 135.451 13.6867 135.451 14.02C135.451 14.3933 135.638 14.68 136.011 14.88C136.385 15.0667 136.965 15.26 137.751 15.46C138.551 15.66 139.211 15.8667 139.731 16.08C140.251 16.2933 140.698 16.6267 141.071 17.08C141.458 17.52 141.658 18.1067 141.671 18.84C141.671 19.48 141.491 20.0533 141.131 20.56C140.785 21.0667 140.278 21.4667 139.611 21.76C138.958 22.04 138.191 22.18 137.311 22.18Z" fill="#080808"/>
</svg>
